# xmcd
#
# Track frame offsets:
#        150
#        25862
#        43362
#        63432
#        81457
#        96790
#        117015
#        139875
#        156037
#        174582
#        193637
#
# Disc length: 3166 seconds
#
# Revision: 0
# Processed by: cddbd v1.5.1PL0 Copyright (c) Steve Scherf et al.
# Submitted via: ExactAudioCopy v0.95b1
#
DISCID=950c5c0b
DTITLE=CHORO CLUB - SUMMERSIDE OF CHORO CLUB
DYEAR=1993
DGENRE=Jazz
TTITLE0=DORA
TTITLE1=NOITES CARIOCAS
TTITLE2=SUMMER KNOWS
TTITLE3=BEGIN THE BEGUINE
TTITLE4=O VOO DA MOSCA
TTITLE5=GROTA DE IPANEMA
TTITLE6=STARDUST
TTITLE7=FEE-FI-FO-FUM
TTITLE8=ENTER MIL....VOCE!
TTITLE9=SHARP TONGUE
TTITLE10=TINSAGU NU HANA
EXTD=
EXTT0=
EXTT1=
EXTT2=
EXTT3=
EXTT4=
EXTT5=
EXTT6=
EXTT7=
EXTT8=
EXTT9=
EXTT10=
PLAYORDER=
